<?xml version="1.0" encoding="utf-8"?>
<!-- Generator: Adobe Illustrator 16.0.0, SVG Export Plug-In . SVG Version: 6.00 Build 0)  -->
<!DOCTYPE svg PUBLIC "-//W3C//DTD SVG 1.1//EN" "http://www.w3.org/Graphics/SVG/1.1/DTD/svg11.dtd">
<svg version="1.1" id="Layer_1" xmlns="http://www.w3.org/2000/svg" xmlns:xlink="http://www.w3.org/1999/xlink" x="0px" y="0px"
	 width="100px" height="100px" viewBox="0 0 100 100" enable-background="new 0 0 100 100" xml:space="preserve">
<path fill="#E82344" d="M88.561,52.127c0,6.479-0.063,12.957,0.041,19.434c0.028,1.791-0.563,2.692-2.221,3.357
	c-11.572,4.643-23.111,9.359-34.646,14.098c-0.844,0.346-1.487,0.334-2.336,0.016c-12.149-4.588-24.304-9.165-36.496-13.639
	c-2.033-0.744-2.681-1.814-2.664-3.975c0.105-13.318,0.093-26.639,0.009-39.959c-0.012-1.935,0.705-2.829,2.431-3.456
	c11.433-4.149,22.843-8.355,34.243-12.59c0.981-0.365,1.769-0.377,2.756-0.004c12.15,4.591,24.308,9.16,36.497,13.647
	c1.741,0.641,2.471,1.466,2.436,3.411C88.482,39.018,88.561,45.572,88.561,52.127z M51.529,65.691c0,6.254,0.027,12.506-0.02,18.757
	c-0.013,1.624,0.131,2.417,2.105,1.597c10.404-4.322,20.847-8.548,31.294-12.76c1.071-0.432,1.487-0.987,1.483-2.154
	c-0.035-12.354-0.037-24.706,0-37.059c0.004-1.526-0.394-1.805-1.83-1.246c-3.777,1.473-7.595,2.853-11.428,4.177
	c-1.414,0.489-1.943,1.222-1.919,2.782c0.101,6.175,0.076,12.354,0.002,18.527c-0.011,0.926,0.774,2.631-1.11,2.578
	c-1.903-0.055-0.953-1.768-0.969-2.664c-0.098-5.949-0.066-11.9-0.037-17.852c0.006-1.238-0.117-1.833-1.627-1.245
	c-4.687,1.823-9.404,3.567-14.154,5.214c-1.379,0.479-1.84,1.154-1.823,2.592C51.57,53.188,51.527,59.441,51.529,65.691z
	 M49.61,65.9c0-6.325-0.026-12.651,0.021-18.979c0.011-1.273-0.261-2.002-1.608-2.498c-11.129-4.095-22.232-8.262-33.322-12.464
	c-1.618-0.613-2.25-0.513-2.24,1.466c0.066,12.57,0.06,25.141,0.001,37.71c-0.006,1.47,0.515,2.048,1.854,2.541
	c10.989,4.048,21.964,8.138,32.893,12.345c1.954,0.752,2.469,0.524,2.437-1.595C49.55,78.254,49.611,72.077,49.61,65.9z
	 M66.077,37.291c-0.175-0.817-0.713-0.861-1.093-1.004c-10.955-4.132-21.921-8.233-32.875-12.369c-0.928-0.351-1.72-0.217-2.6,0.117
	c-4.069,1.544-8.162,3.027-12.233,4.567c-0.635,0.24-1.504,0.229-1.74,1.115c0.479,0.76,1.275,0.874,1.95,1.128
	c8.636,3.256,17.401,6.208,25.883,9.825c4.992,2.128,9.5,2.538,14.334-0.015C60.369,39.248,63.467,38.762,66.077,37.291z
	 M83.521,30.813c-0.554-1.003-1.444-1.09-2.174-1.364c-9.484-3.566-19.037-6.959-28.443-10.721c-3.226-1.29-5.989-1.542-9.157,0.014
	c-2.847,1.398-5.954,2.265-8.986,3.38c0.459,1.003,1.187,1.077,1.793,1.305c9.976,3.755,19.98,7.43,29.913,11.293
	c2.547,0.99,4.819,1.164,7.307-0.01C76.919,33.227,80.384,32.483,83.521,30.813z"/>
<path fill="#E82344" d="M31.128,75.109c-4.698-1.762-9.042-3.396-13.388-5.021c-0.676-0.252-1.176-0.583-1.17-1.434
	c0.024-3.375,0.011-6.752,0.011-10.383c4.729,1.773,9.211,3.461,13.697,5.135c0.794,0.298,0.859,0.92,0.855,1.638
	C31.119,68.275,31.128,71.509,31.128,75.109z M29.245,68.239c0.692-2.302-0.556-3.654-3.101-4.253
	c-1.156-0.271-2.247-0.822-3.373-1.234c-4.289-1.566-4.198-1.563-4.327,3.064c-0.051,1.799,0.452,2.768,2.219,3.259
	c1.724,0.479,3.379,1.213,5.054,1.858C29.246,72.296,29.244,72.302,29.245,68.239z"/>
<path fill="#E82344" d="M45.074,74.646c0.122,1.011-0.337,1.106-1.182,0.787c-2.587-0.979-5.186-1.929-7.787-2.867
	c-0.907-0.328-1.438-0.971-1.163-1.875c0.402-1.313,1.286-0.284,1.811-0.11c2.339,0.778,4.631,1.703,6.939,2.573
	C44.398,73.42,45.172,73.619,45.074,74.646z"/>
<path fill="#E82344" d="M45.072,79.249c0.031,1.135-0.479,1.046-1.152,0.788c-2.654-1.014-5.313-2.018-7.982-2.991
	c-0.867-0.317-1.249-0.987-0.967-1.739c0.355-0.947,1.172-0.341,1.728-0.146c2.399,0.841,4.781,1.738,7.154,2.648
	C44.555,78.08,45.338,78.369,45.072,79.249z"/>
</svg>
