<?xml version="1.0" encoding="utf-8"?>
<!-- Generator: Adobe Illustrator 16.0.0, SVG Export Plug-In . SVG Version: 6.00 Build 0)  -->
<!DOCTYPE svg PUBLIC "-//W3C//DTD SVG 1.1//EN" "http://www.w3.org/Graphics/SVG/1.1/DTD/svg11.dtd">
<svg version="1.1" id="Layer_1" xmlns="http://www.w3.org/2000/svg" xmlns:xlink="http://www.w3.org/1999/xlink" x="0px" y="0px"
	 width="450px" height="100px" viewBox="0 0 450 100" enable-background="new 0 0 450 100" xml:space="preserve">
<path fill="#E82344" d="M23.483,35.533c-11.949,0-21.636,9.687-21.636,21.637s9.687,21.638,21.636,21.638h21.638V57.17
	C45.121,45.22,35.435,35.533,23.483,35.533z M23.483,68.431c-6.278,0-11.368-5.09-11.368-11.369c0-6.277,5.09-11.368,11.368-11.368
	c6.279,0,11.37,5.091,11.37,11.368C34.853,63.341,29.763,68.431,23.483,68.431z"/>
<path fill="#FFFFFF" d="M179.715,35.688c-5.918,0-10.979,2.102-15.182,6.304c-4.203,4.203-6.304,9.265-6.304,15.182
	c0,5.92,2.101,10.98,6.304,15.183c4.203,4.203,9.263,6.304,15.182,6.304c5.918,0,10.979-2.101,15.182-6.304
	c4.203-4.202,6.304-9.263,6.304-15.183c0-5.917-2.101-10.979-6.304-15.182C190.695,37.79,185.633,35.688,179.715,35.688z
	 M188.444,66.015c-2.412,2.412-5.322,3.618-8.729,3.618c-3.432,0-6.354-1.206-8.766-3.618c-2.388-2.411-3.581-5.322-3.581-8.729
	c0-3.432,1.193-6.353,3.581-8.767c2.411-2.411,5.334-3.618,8.766-3.618c3.406,0,6.317,1.208,8.729,3.618
	c2.412,2.414,3.619,5.335,3.619,8.767C192.063,60.692,190.856,63.604,188.444,66.015z"/>
<path fill="#FFFFFF" d="M270.641,21.961c-1.02-1.02-2.237-1.53-3.655-1.53c-1.443,0-2.673,0.51-3.694,1.53
	c-1.019,1.02-1.528,2.238-1.528,3.656c0,1.442,0.51,2.673,1.528,3.692c1.021,1.021,2.251,1.53,3.694,1.53
	c1.418,0,2.636-0.509,3.655-1.53c1.045-0.994,1.566-2.226,1.566-3.692C272.207,24.174,271.686,22.957,270.641,21.961z"/>
<path fill="#FFFFFF" d="M352.493,21.961c-1.02-1.02-2.237-1.53-3.656-1.53c-1.441,0-2.672,0.51-3.693,1.53
	c-1.02,1.02-1.528,2.238-1.528,3.656c0,1.442,0.509,2.673,1.528,3.692c1.021,1.021,2.252,1.53,3.693,1.53
	c1.419,0,2.637-0.509,3.656-1.53c1.045-0.994,1.566-2.226,1.566-3.692C354.06,24.174,353.538,22.957,352.493,21.961z"/>
<path fill="#E82344" d="M74.056,35.688h-1.407c-4.551,0-8.43,1.604-11.638,4.812c-3.158,3.208-4.762,7.087-4.812,11.638v21.885
	v0.124v4.661h9.186v-4.785h-0.046V52.138c0.024-2.039,0.734-3.767,2.126-5.184c1.417-1.417,3.146-2.126,5.185-2.126h2.126
	c0.12,0,0.237-0.006,0.354-0.014h4.161v-4.5v-0.074v-4.551h-4.514H74.056z"/>
<path fill="#FFFFFF" d="M330.395,69.521h-2.325c-0.746,0-1.368-0.248-1.866-0.747c-0.497-0.496-0.746-1.105-0.746-1.827v-22.12
	h5.597c0.116,0,0.232-0.006,0.345-0.014h4.169v-4.5v-0.074v-4.551h-4.514h-1.637h-3.96v-8.152h0.048v-7.141h-4.561h-0.112h-4.514
	v4.513v2.628v39.411c0,3.208,1.145,5.968,3.432,8.28c2.313,2.289,5.086,3.433,8.319,3.433h2.984c0.284,0,0.56-0.025,0.827-0.073
	h3.746V69.46h-5.232V69.521z"/>
<path fill="#E82344" d="M99.674,35.688h-5.063V25.179h0.046v-4.784h-4.561h-0.112h-4.514v4.513v0.271v41.768
	c0,3.208,1.144,5.968,3.432,8.28c2.313,2.289,5.085,3.433,8.318,3.433h2.985c0.285,0,0.559-0.025,0.826-0.073h3.874v-9.062h-4.523
	c-0.059-0.002-0.117-0.004-0.177-0.004h-2.985c-0.746,0-1.368-0.248-1.865-0.747c-0.497-0.496-0.745-1.105-0.745-1.827v-22.12h5.595
	c0.116,0,0.231-0.006,0.346-0.014h4.354v-9.125h-4.7H99.674z"/>
<polygon fill="#FFFFFF" points="348.801,35.688 344.244,35.688 344.244,40.473 344.249,40.473 344.249,74.022 344.244,74.022 
	344.244,78.808 353.43,78.808 353.43,74.022 353.39,74.022 353.39,40.473 353.43,40.473 353.43,35.688 348.875,35.688 "/>
<polygon fill="#FFFFFF" points="266.947,35.688 262.394,35.688 262.394,40.473 262.397,40.473 262.397,74.022 262.394,74.022 
	262.394,78.808 271.578,78.808 271.578,74.022 271.537,74.022 271.537,40.473 271.578,40.473 271.578,35.688 267.022,35.688 "/>
<path fill="#FFFFFF" d="M229.99,35.688c-5.92,0-10.979,2.102-15.182,6.304c-4.204,4.203-6.305,9.265-6.305,15.182
	c0,5.92,2.101,10.98,6.305,15.183c4.202,4.203,9.262,6.304,15.182,6.304c5.395,0,9.513-2.053,12.348-6.155c0,0.527,0,1.551,0,1.551
	v3.826c-0.06,3.297-1.264,6.122-3.616,8.475c-2.411,2.411-5.321,3.618-8.728,3.618c-3.434,0-6.355-1.207-8.766-3.618
	c-0.678-0.685-1.258-1.407-1.742-2.171h-9.976c1.008,3.147,2.774,5.985,5.302,8.511c4.203,4.203,9.264,6.304,15.182,6.304
	s10.978-2.101,15.181-6.304c4.003-4.001,6.097-8.78,6.289-14.338h0.012V72.98h-0.005c0.003-0.158,0.005-0.317,0.005-0.476V57.099
	c-0.024-5.943-2.14-10.99-6.341-15.144C240.931,37.778,235.884,35.688,229.99,35.688z M242.338,57.174
	c0,3.432-1.208,6.354-3.618,8.766c-2.388,2.387-5.299,3.582-8.729,3.582c-3.432,0-6.354-1.195-8.766-3.582
	c-2.387-2.412-3.581-5.334-3.581-8.766c0-3.407,1.194-6.316,3.581-8.728c2.411-2.413,5.334-3.619,8.766-3.619
	c3.38,0,6.266,1.181,8.654,3.543c2.411,2.362,3.642,5.222,3.693,8.578V57.174z"/>
<path fill="#FFFFFF" d="M305.172,57.249c-1.441-1.368-3.641-2.475-6.601-3.321c-3.656-0.969-5.731-1.591-6.229-1.864
	c-1.443-0.746-2.164-1.864-2.164-3.357c0-1.068,0.374-1.988,1.119-2.761c0.746-0.745,1.666-1.118,2.761-1.118h7.235
	c0.119,0,0.238-0.006,0.354-0.014h3.352v-9.125h-3.706h-2.368h-4.493c-3.58,0-6.652,1.281-9.215,3.842
	c-2.536,2.536-3.805,5.596-3.805,9.175c0,3.682,1.033,6.528,3.096,8.543c1.443,1.418,3.644,2.562,6.604,3.432
	c3.804,1.068,5.892,1.691,6.267,1.866c1.417,0.695,2.126,1.729,2.126,3.095c0,1.094-0.373,2.014-1.119,2.762
	c-0.745,0.746-1.667,1.118-2.761,1.118h-8.51V69.46h-4.904v9.127h2.479c0.267,0.048,0.542,0.073,0.826,0.073h9.735
	c3.581,0,6.652-1.27,9.214-3.806c2.537-2.56,3.806-5.632,3.806-9.213C308.271,62.011,307.238,59.213,305.172,57.249z"/>
<path fill="#FFFFFF" d="M425.131,57.346c-1.443-1.366-3.645-2.474-6.604-3.318c-3.656-0.971-5.731-1.591-6.228-1.866
	c-1.443-0.746-2.165-1.865-2.165-3.355c0-1.069,0.374-1.99,1.119-2.762c0.746-0.746,1.665-1.119,2.76-1.119h7.237
	c0.119,0,0.237-0.005,0.352-0.013h3.353v-9.125h-3.704h-2.367h-4.496c-3.581,0-6.653,1.28-9.214,3.841
	c-2.536,2.537-3.805,5.595-3.805,9.177c0,3.68,1.031,6.527,3.097,8.54c1.441,1.417,3.642,2.563,6.603,3.433
	c3.803,1.07,5.893,1.691,6.266,1.865c1.417,0.696,2.126,1.729,2.126,3.096c0,1.096-0.373,2.015-1.119,2.76
	c-0.745,0.747-1.666,1.12-2.759,1.12h-8.511v-0.062h-4.902v9.126h2.477c0.267,0.049,0.543,0.074,0.826,0.074h9.735
	c3.581,0,6.652-1.269,9.214-3.805c2.537-2.562,3.805-5.632,3.805-9.214C428.226,62.108,427.194,59.311,425.131,57.346z"/>
<path fill="#FFFFFF" d="M384.713,69.633c-3.431,0-6.353-1.206-8.766-3.618c-2.386-2.411-3.581-5.322-3.581-8.729
	c0-3.432,1.195-6.353,3.581-8.767c2.413-2.411,5.335-3.618,8.766-3.618c0.091,0,0.179,0.002,0.269,0.005v0.01h8.803v-9.228h-8.803
	v0.003c-0.09-0.001-0.178-0.003-0.269-0.003c-5.918,0-10.979,2.102-15.182,6.304c-4.203,4.203-6.305,9.265-6.305,15.182
	c0,5.92,2.102,10.98,6.305,15.183c4.202,4.203,9.264,6.304,15.182,6.304c0.189,0,0.375-0.003,0.562-0.008v0.008h8.802v-9.041h-8.802
	C385.088,69.627,384.902,69.633,384.713,69.633z"/>
<g>
	<g>
		<g>
			<path fill="#FFFFFF" d="M268.733,18.827c-0.36,0-0.722-0.146-0.979-0.409c-0.257-0.257-0.409-0.61-0.409-0.978
				s0.152-0.722,0.409-0.985c0.515-0.514,1.442-0.514,1.964,0c0.256,0.263,0.4,0.617,0.4,0.985c0,0.36-0.145,0.721-0.4,0.978
				C269.455,18.682,269.102,18.827,268.733,18.827z"/>
		</g>
		<g>
			<path fill="#FFFFFF" d="M340.719,15.72c-0.632-0.43-0.797-1.29-0.375-1.928l0,0c0.431-0.631,1.298-0.798,1.93-0.368l0,0
				c0.637,0.423,0.804,1.29,0.373,1.921l0,0c-0.271,0.396-0.707,0.61-1.15,0.61l0,0C341.226,15.956,340.955,15.88,340.719,15.72z
				 M271.514,15.311c-0.431-0.638-0.256-1.498,0.382-1.921l0,0l0,0l0,0c0.637-0.43,1.497-0.257,1.922,0.381l0,0
				c0.43,0.639,0.256,1.499-0.381,1.921l0,0c-0.238,0.16-0.508,0.236-0.771,0.236l0,0C272.214,15.929,271.777,15.714,271.514,15.311
				z M275.627,12.662c-0.381-0.666-0.146-1.512,0.52-1.886l0,0l0,0l0,0c0.674-0.382,1.513-0.146,1.894,0.52l0,0
				c0.374,0.666,0.139,1.512-0.525,1.894l0,0c-0.217,0.117-0.452,0.18-0.681,0.18l0,0C276.348,13.369,275.877,13.112,275.627,12.662
				z M336.661,13.167c-0.659-0.388-0.888-1.241-0.5-1.9l0,0c0.39-0.659,1.236-0.881,1.901-0.5l0,0l0,0l0,0
				c0.659,0.389,0.881,1.236,0.499,1.901l0,0c-0.264,0.443-0.729,0.687-1.199,0.687l0,0
				C337.119,13.355,336.884,13.293,336.661,13.167z M279.919,10.325c-0.332-0.694-0.033-1.52,0.654-1.853l0,0
				c0.692-0.326,1.524-0.034,1.851,0.659l0,0c0.326,0.693,0.035,1.519-0.659,1.852l0,0c-0.187,0.09-0.396,0.131-0.597,0.131l0,0
				C280.656,11.115,280.156,10.824,279.919,10.325z M332.444,10.9c-0.687-0.34-0.972-1.172-0.63-1.858l0,0
				c0.331-0.687,1.163-0.971,1.852-0.632l0,0c0.687,0.34,0.971,1.172,0.637,1.859l0,0c-0.242,0.485-0.735,0.777-1.248,0.777l0,0
				C332.847,11.046,332.639,10.997,332.444,10.9z M284.366,8.292c-0.277-0.714,0.076-1.519,0.791-1.797l0,0
				c0.714-0.277,1.519,0.077,1.796,0.791l0,0c0.278,0.715-0.077,1.519-0.791,1.797l0,0c-0.166,0.062-0.333,0.097-0.499,0.097l0,0
				C285.101,9.18,284.581,8.84,284.366,8.292z M328.075,8.958c-0.707-0.285-1.055-1.089-0.77-1.803l0,0
				c0.284-0.707,1.088-1.054,1.802-0.77l0,0c0,0,0,0,0-0.007l0,0c0.709,0.283,1.056,1.095,0.771,1.803l0,0
				c-0.215,0.548-0.735,0.874-1.29,0.874l0,0C328.421,9.055,328.247,9.027,328.075,8.958z M288.95,6.593
				c-0.222-0.735,0.188-1.505,0.924-1.734l0,0c0.729-0.221,1.504,0.194,1.732,0.923l0,0c0.222,0.736-0.193,1.512-0.922,1.734l0,0
				c-0.139,0.042-0.27,0.056-0.408,0.056l0,0C289.686,7.571,289.131,7.189,288.95,6.593z M323.574,7.37
				c-0.729-0.223-1.145-0.999-0.916-1.734l0,0c0.222-0.728,0.999-1.144,1.734-0.916l0,0c0.729,0.222,1.144,0.999,0.916,1.734l0,0
				c-0.181,0.597-0.729,0.979-1.325,0.979l0,0C323.85,7.433,323.712,7.411,323.574,7.37z M293.652,5.241
				c-0.166-0.749,0.306-1.484,1.055-1.65l0,0c0.742-0.167,1.484,0.305,1.651,1.054l0,0c0.166,0.749-0.305,1.484-1.055,1.65l0,0
				c-0.104,0.028-0.202,0.035-0.298,0.035l0,0C294.368,6.329,293.792,5.893,293.652,5.241z M318.962,6.163
				c-0.749-0.16-1.229-0.895-1.062-1.644l0,0c0.158-0.749,0.896-1.227,1.65-1.061l0,0c0.75,0.16,1.222,0.895,1.061,1.644l0,0
				c-0.139,0.652-0.714,1.095-1.353,1.095l0,0C319.162,6.197,319.059,6.191,318.962,6.163z M298.438,4.27
				c-0.104-0.757,0.431-1.457,1.193-1.561l0,0c0.756-0.104,1.456,0.43,1.561,1.186l0,0c0.104,0.763-0.431,1.457-1.187,1.561l0,0
				c-0.069,0.014-0.131,0.014-0.194,0.014l0,0C299.133,5.47,298.535,4.964,298.438,4.27z M314.267,5.365
				c-0.764-0.097-1.298-0.791-1.208-1.546l0,0c0.098-0.763,0.791-1.305,1.554-1.207l0,0c0.757,0.097,1.297,0.791,1.2,1.547l0,0
				c-0.083,0.7-0.687,1.22-1.374,1.22l0,0C314.385,5.379,314.321,5.373,314.267,5.365z M303.294,3.701
				c-0.035-0.77,0.554-1.421,1.317-1.457l0,0c0.764-0.041,1.414,0.547,1.457,1.311l0,0c0.034,0.77-0.554,1.422-1.318,1.456l0,0
				c-0.02,0-0.048,0-0.069,0l0,0C303.945,5.011,303.336,4.436,303.294,3.701z M309.515,4.977L309.515,4.977
				c-0.762-0.028-1.358-0.666-1.331-1.436l0,0c0.028-0.763,0.672-1.359,1.436-1.331l0,0l0,0l0,0
				c0.763,0.027,1.359,0.672,1.331,1.435l0,0c-0.027,0.75-0.638,1.339-1.38,1.339l0,0C309.551,4.983,309.537,4.977,309.515,4.977z"
				/>
		</g>
		<g>
			<path fill="#FFFFFF" d="M345.47,18.827c-0.366,0-0.722-0.146-0.979-0.409c-0.262-0.257-0.408-0.61-0.408-0.978
				s0.146-0.722,0.408-0.985c0.515-0.514,1.444-0.514,1.957,0c0.264,0.263,0.409,0.617,0.409,0.985s-0.146,0.721-0.402,0.978
				C346.19,18.682,345.837,18.827,345.47,18.827z"/>
		</g>
	</g>
</g>
<path fill="#FFFFFF" d="M146.421,69.669h-2.984c-0.747,0-1.368-0.249-1.865-0.746c-0.498-0.498-0.746-1.105-0.746-1.828V48.729
	v-3.754v-9.14V25.326v-4.784h-4.514h-0.11h-4.514v4.514v0.271v41.769c0,3.209,1.143,5.969,3.431,8.281
	c2.313,2.287,5.086,3.432,8.319,3.432h2.984c0.284,0,0.56-0.026,0.827-0.074h3.873v-9.061h-4.522
	C146.539,69.67,146.48,69.669,146.421,69.669z"/>
</svg>
