<?xml version="1.0" encoding="utf-8"?>
<!-- Generator: Adobe Illustrator 16.0.0, SVG Export Plug-In . SVG Version: 6.00 Build 0)  -->
<!DOCTYPE svg PUBLIC "-//W3C//DTD SVG 1.1//EN" "http://www.w3.org/Graphics/SVG/1.1/DTD/svg11.dtd">
<svg version="1.1" id="Layer_1" xmlns="http://www.w3.org/2000/svg" xmlns:xlink="http://www.w3.org/1999/xlink" x="0px" y="0px"
	 width="100px" height="100px" viewBox="0 0 100 100" enable-background="new 0 0 100 100" xml:space="preserve">
<g>
	<path fill-rule="evenodd" clip-rule="evenodd" fill="#E82344" d="M52.63,19.719c0.038-0.921-0.586-0.997-1.268-0.999
		c-1.114-0.002-2.229-0.001-3.342,0c-1.115,0.001-2.23-0.001-3.344,0.001c-0.573,0.001-1.149,0.001-1.207,0.793
		c-0.057,0.807,0.343,1.167,1.122,1.166c2.309-0.002,4.617,0.003,6.927-0.01C52.132,20.667,52.602,20.442,52.63,19.719z"/>
	<rect x="23.868" y="62.635" fill-rule="evenodd" clip-rule="evenodd" fill="#E82344" width="2.101" height="18.591"/>
	<rect x="30.17" y="62.648" fill-rule="evenodd" clip-rule="evenodd" fill="#E82344" width="2.1" height="18.591"/>
	<rect x="36.467" y="62.642" fill-rule="evenodd" clip-rule="evenodd" fill="#E82344" width="2.101" height="18.591"/>
	<rect x="42.77" y="62.655" fill-rule="evenodd" clip-rule="evenodd" fill="#E82344" width="2.1" height="18.591"/>
	<rect x="48.866" y="62.587" fill-rule="evenodd" clip-rule="evenodd" fill="#E82344" width="2.101" height="18.591"/>
	<rect x="55.168" y="62.601" fill-rule="evenodd" clip-rule="evenodd" fill="#E82344" width="2.1" height="18.591"/>
	<rect x="67.768" y="62.607" fill-rule="evenodd" clip-rule="evenodd" fill="#E82344" width="2.1" height="18.591"/>
	<rect x="61.643" y="62.587" fill-rule="evenodd" clip-rule="evenodd" fill="#E82344" width="2.1" height="18.591"/>
	<rect x="74.033" y="62.655" fill-rule="evenodd" clip-rule="evenodd" fill="#E82344" width="2.1" height="18.591"/>
	<path fill-rule="evenodd" clip-rule="evenodd" fill="#E82344" d="M65.938,56.625c-2.147-0.611-3.949-1.945-5.646-3.869
		c-2.55-2.892-2.712-2.744-0.819-5.962c0.204-0.343,0.392-0.701,0.547-1.068c0.591-1.395,0.58-2.712-0.82-3.603
		c-1.316-0.836-2.411-0.242-3.432,0.72c-2.531,2.383-2.419,2.157-5.365,0.414c-1.872-1.109-1.265-1.814-0.233-2.808
		c0.516-0.495,1.104-0.938,1.721-1.302c2.581-1.525,3.917-3.803,3.812-6.76c-0.066-1.851,0.617-2.438,2.369-2.242
		c1.966,0.22,3.822,0.154,4.812-2.089c0.794-1.795,2.697-3.029,2.699-5.243c0-2.888-0.035-5.775,0.011-8.662
		c0.019-1.153-0.235-1.759-1.588-1.75c-8.26,0.047-16.518,0.023-24.778,0.024c-0.738,0-1.573-0.034-1.5,1.031
		c0.345,5.047-1.433,10.424,2.707,14.883c1.143,1.232,2.045,2.055,3.755,1.856c0.628-0.073,1.566-0.392,1.875,0.547
		c0.283,0.858,0.179,1.782-0.48,2.479c-0.49,0.518-1.098,0.923-1.651,1.384c-3.616,3.028-4.9,7.833-2.511,11.878
		c1.434,2.428,0.414,3.4-0.97,5.146c-2.107,2.661-4.488,4.289-7.288,4.997H17.25V87.25h65.125V56.625H65.938z M56.608,44.761
		c0.351-0.41,0.761-1.017,1.369-0.634c0.796,0.502,0.212,1.158-0.098,1.642c-1.822,2.841-4.281,4.684-7.986,4.78
		c-0.37-0.051-0.956-0.031-1.463-0.225c-0.871-0.333-2.488-0.285-1.954-1.737c0.383-1.041,1.283-2.477,2.867-1.878
		C52.296,47.822,54.626,47.066,56.608,44.761z M45.891,28.271c-3.243-0.001-6.203-2.712-6.348-5.935
		c-0.096-2.074,0.041-4.158-0.035-6.233c-0.054-1.432,0.627-1.745,1.892-1.725c3.356,0.054,6.715,0.018,10.073,0.018
		c3.436,0,6.873,0.051,10.309-0.025c1.437-0.032,2.016,0.408,1.941,1.908c-0.177,3.595,0.688,7.323-2.177,10.446
		c-0.966,1.053-1.774,1.594-3.188,1.57C54.203,28.223,50.047,28.272,45.891,28.271z M45.236,36.072
		c1.567-1.333,2.863-2.656,3.069-4.899c0.182-2,1.971-0.525,2.718-1.022c3.128,0.007,3.037-0.002,2.737,2.981
		c-0.208,2.061-1.351,3.317-2.929,4.411c-2.358,1.637-4.448,3.324-3.69,6.826c0.265,1.228-1.208,2.268-2.389,2.676
		c-1.246,0.432-1.525-0.892-1.894-1.711C41.406,42.077,42.263,38.6,45.236,36.072z M39.289,55.348
		c1.35-1.361,2.76-2.663,4.105-4.028c0.699-0.708,1.343-0.634,2.128-0.165c2.829,1.692,5.771,1.754,8.695,0.331
		c1.138-0.552,1.888-0.396,2.706,0.515c1.015,1.126,2.157,2.14,3.224,3.219c0.322,0.327,0.623,1.339,0.567,1.406H38.918
		C38.862,56.556,39.033,55.606,39.289,55.348z M79.875,84.75H19.75V59.125h60.125V84.75z"/>
</g>
</svg>
