<?xml version="1.0" encoding="utf-8"?>
<!-- Generator: Adobe Illustrator 16.0.0, SVG Export Plug-In . SVG Version: 6.00 Build 0)  -->
<!DOCTYPE svg PUBLIC "-//W3C//DTD SVG 1.1//EN" "http://www.w3.org/Graphics/SVG/1.1/DTD/svg11.dtd">
<svg version="1.1" id="Layer_1" xmlns="http://www.w3.org/2000/svg" xmlns:xlink="http://www.w3.org/1999/xlink" x="0px" y="0px"
	 width="100px" height="100px" viewBox="0 0 100 100" enable-background="new 0 0 100 100" xml:space="preserve">
<path fill-rule="evenodd" clip-rule="evenodd" fill="#E82344" d="M63.252,46.884c-0.002-7.159-0.018-14.316,0.02-21.474
	c0.004-0.691-0.48-1.814,0.939-1.836c1.404-0.022,0.98,1.065,1,1.791c0.049,1.808,0.154,3.63-0.021,5.421
	c-0.193,1.997,0.654,2.352,2.443,2.312c5.045-0.112,10.098,0.038,15.143-0.081c1.789-0.042,2.352,0.466,2.295,2.275
	c-0.129,4.14,0.045,8.289-0.084,12.43c-0.053,1.689,0.477,2.419,2.121,2.151c2.199-0.358,2.613,0.673,2.564,2.654
	c-0.125,5.12-0.041,10.246-0.041,15.37c0,2.85,0,2.849,2.965,2.847c0.525-0.001,1.053,0.006,1.58,0.006
	c0.799,0,1.313,0.327,1.301,1.191c-0.01,0.829-0.604,0.933-1.252,0.936c-0.754,0.004-1.506,0.004-2.26,0.004
	c-13.412,0-26.824,0.018-40.236-0.028c-1.337-0.004-2.12,0.311-2.854,1.551c-3.072,5.188-10.28,5.277-13.444,0.137
	c-0.86-1.396-1.771-1.77-3.247-1.684c-1.727,0.102-3.468,0.095-5.197,0.007c-2.552-0.13-4.524-0.13-6.088,2.843
	c-2.079,3.951-8.258,3.477-10.179-0.626c-0.944-2.019-2.071-2.445-3.903-2.19c-1.744,0.241-2.393-0.359-2.283-2.205
	c0.165-2.778-0.018-5.574,0.063-8.361c0.147-5.122,4.033-8.871,9.172-8.91c3.014-0.022,6.028-0.042,9.041,0.008
	c1.837,0.029,2.589-0.844,2.579-2.611c-0.023-4.145-0.023-8.288-0.002-12.432c0.028-5.705,3.333-8.542,8.963-9.067
	c6.946-0.648,11.372,1.825,14.359,8.164c2.523,5.354,5.889,10.312,8.918,15.424c0.557,0.939,0.824,1.875,0.813,2.973
	c-0.043,4.22,0.08,8.443-0.063,12.658c-0.063,1.838,0.561,2.328,2.287,2.259c1.564-0.063,2.686,0.021,2.641-2.205
	C63.162,61.353,63.252,54.116,63.252,46.884z M44.793,53.408c2.938,0,5.877-0.062,8.813,0.022c1.74,0.051,1.691-0.503,0.932-1.767
	c-2.753-4.575-5.833-9.012-8.039-13.843c-2.487-5.451-6.394-7.179-11.936-6.415c-0.594,0.082-1.206,0.04-1.798,0.126
	c-3.193,0.471-5.076,2.621-5.098,5.833c-0.028,4.218,0.018,8.437-0.065,12.652c-0.08,4.056-1.595,5.503-5.688,5.548
	c-2.786,0.03-5.574-0.077-8.359-0.017c-4.072,0.089-6.722,2.821-6.765,6.878c-0.021,1.958-0.083,3.922,0.032,5.873
	c0.048,0.816-0.729,2.103,0.844,2.372c1.226,0.209,2.127,0.072,2.895-1.335c2.559-4.694,8.472-4.672,11.032-0.002
	c0.621,1.133,1.291,1.457,2.459,1.428c2.56-0.063,5.126-0.131,7.68-0.005c1.646,0.081,2.336-0.46,2.691-2.104
	c0.839-3.885,3.919-6.24,7.762-6.215c3.832,0.024,6.853,2.429,7.643,6.351c0.321,1.592,0.989,2.208,2.558,1.97
	c0.515-0.078,1.06-0.07,1.578-0.003c1.702,0.219,2.403-0.33,2.319-2.203c-0.156-3.458-0.162-6.933-0.002-10.391
	c0.094-2.026-0.449-2.689-2.573-2.642c-6.399,0.146-12.805,0.062-19.207,0.037c-1.011-0.004-2.162,0.188-2.125-1.52
	c0.076-3.464,0.017-6.931,0.022-10.395c0.001-0.69-0.008-1.408,0.983-1.446c1.172-0.044,1.067,0.784,1.067,1.543
	c0.001,2.712,0.049,5.424-0.02,8.136c-0.03,1.182,0.368,1.58,1.553,1.554C38.916,53.362,41.855,53.408,44.793,53.408z
	 M76.273,70.745c3.014,0,6.029-0.085,9.037,0.033c1.646,0.064,2.24-0.386,2.191-2.128c-0.123-4.364-0.041-8.735-0.041-13.104
	c0-3.473,0-3.497-3.43-3.465c-3.484,0.032-2.938-0.488-2.992,2.963c-0.023,1.354,0.01,2.711-0.008,4.067
	c-0.043,3.837,0.484,3.345-3.357,3.36c-5.713,0.024-5.713,0.007-5.713-5.724c0-4.82,0-4.773-4.928-4.705
	c-1.336,0.019-1.854,0.344-1.834,1.769c0.074,5.044,0.076,10.093-0.002,15.137c-0.023,1.418,0.488,1.832,1.813,1.809
	C70.096,70.703,73.186,70.741,76.273,70.745z M73.955,49.882c2.412,0,4.824-0.052,7.232,0.021c1.256,0.038,1.721-0.355,1.691-1.663
	c-0.082-3.766-0.1-7.536-0.025-11.302c0.025-1.32-0.422-1.642-1.674-1.625c-4.748,0.065-9.496,0.057-14.242,0.005
	c-1.217-0.014-1.762,0.274-1.736,1.622c0.076,3.767,0.072,7.536,0.004,11.302c-0.025,1.331,0.52,1.69,1.742,1.658
	C69.281,49.84,71.619,49.884,73.955,49.882z M42.094,76.151c3.373,0.005,5.873-2.432,5.897-5.745
	c0.024-3.255-2.812-6.115-5.982-6.035c-3.171,0.082-5.763,2.787-5.754,6.01C36.264,73.704,38.736,76.148,42.094,76.151z
	 M16.147,76.149c2.31-0.037,4.189-1.89,4.158-4.1c-0.03-2.157-2.035-4.124-4.215-4.136c-2.373-0.013-4.302,1.943-4.237,4.294
	C11.915,74.442,13.816,76.186,16.147,76.149z M78.816,56.29c0-4.32,0-4.25-3.133-4.252c-1.365-0.002-1.914,0.397-1.822,1.795
	c0.092,1.426,0.141,2.875-0.012,4.291c-0.199,1.868,0.613,2.176,2.305,2.271c2.217,0.125,3.047-0.58,2.674-2.75
	C78.752,57.206,78.816,56.742,78.816,56.29z"/>
<path fill-rule="evenodd" clip-rule="evenodd" fill="#E82344" d="M43.871,70.4c-0.289,0.937-0.776,1.673-1.865,1.571
	c-1.014-0.096-1.676-0.703-1.597-1.766c0.07-0.953,0.745-1.43,1.677-1.447C43.173,68.739,43.651,69.438,43.871,70.4z"/>
</svg>
